<?xml version="1.0" encoding="UTF-8" standalone="no"?>
<svg
   xmlns:dc="http://purl.org/dc/elements/1.1/"
   xmlns:cc="http://creativecommons.org/ns#"
   xmlns:rdf="http://www.w3.org/1999/02/22-rdf-syntax-ns#"
   xmlns:svg="http://www.w3.org/2000/svg"
   xmlns="http://www.w3.org/2000/svg"
   xmlns:sodipodi="http://sodipodi.sourceforge.net/DTD/sodipodi-0.dtd"
   xmlns:inkscape="http://www.inkscape.org/namespaces/inkscape"
   viewBox="0 0 300 300"
   height="300"
   width="300"
   xml:space="preserve"
   id="svg2"
   version="1.1"
   sodipodi:docname="TidalCycles_identity.svg"
   inkscape:version="0.92.2 5c3e80d, 2017-08-06"><metadata
     id="metadata24"><rdf:RDF><cc:Work
         rdf:about=""><dc:format>image/svg+xml</dc:format><dc:type
           rdf:resource="http://purl.org/dc/dcmitype/StillImage" /></cc:Work></rdf:RDF></metadata><sodipodi:namedview
     pagecolor="#ffffff"
     bordercolor="#666666"
     borderopacity="1"
     objecttolerance="10"
     gridtolerance="10"
     guidetolerance="10"
     inkscape:pageopacity="0"
     inkscape:pageshadow="2"
     inkscape:window-width="640"
     inkscape:window-height="480"
     id="namedview22"
     showgrid="false"
     inkscape:zoom="0.405"
     inkscape:cx="400"
     inkscape:cy="124.5"
     inkscape:window-x="220"
     inkscape:window-y="86"
     inkscape:window-maximized="0"
     inkscape:current-layer="g10" /><defs
     id="defs6"><linearGradient
       id="linearGradient56"
       spreadMethod="pad"
       gradientTransform="matrix(122.225,122.225,122.225,-122.225,25.3184,25.462)"
       gradientUnits="userSpaceOnUse"
       y2="0"
       x2="1"
       y1="0"
       x1="0"><stop
         id="stop50"
         offset="0"
         style="stop-opacity:1;stop-color:#1a2243" /><stop
         id="stop52"
         offset="0.5"
         style="stop-opacity:1;stop-color:#46c1b9" /><stop
         id="stop54"
         offset="1"
         style="stop-opacity:1;stop-color:#c5115b" /></linearGradient><linearGradient
       id="linearGradient100"
       spreadMethod="pad"
       gradientTransform="matrix(158.221,0,0,-158.221,206.702,88.9141)"
       gradientUnits="userSpaceOnUse"
       y2="0"
       x2="1"
       y1="0"
       x1="0"><stop
         id="stop96"
         offset="0"
         style="stop-opacity:1;stop-color:#1a2243" /><stop
         id="stop98"
         offset="1"
         style="stop-opacity:1;stop-color:#46c1b9" /></linearGradient><linearGradient
       id="linearGradient164"
       spreadMethod="pad"
       gradientTransform="matrix(208.619,0,0,-208.619,373.409,82.0118)"
       gradientUnits="userSpaceOnUse"
       y2="0"
       x2="1"
       y1="0"
       x1="0"><stop
         id="stop160"
         offset="0"
         style="stop-opacity:1;stop-color:#46c1b9" /><stop
         id="stop162"
         offset="1"
         style="stop-opacity:1;stop-color:#c5115b" /></linearGradient></defs><g
     transform="matrix(1.3333333,0,0,-1.3333333,0,249)"
     id="g10"><g
       transform="matrix(1.0102733,0,0,1.0102733,5.9790415,5.8275271)"
       id="g28"><path
         inkscape:connector-curvature="0"
         id="path58"
         style="fill:url(#linearGradient56);stroke:none"
         d="m 86.43,3.266 v 3.117 c 44.293,0 80.199,35.906 80.199,80.199 h 3.117 C 169.746,40.566 132.445,3.266 86.43,3.266 Z M 28.051,86.582 h -3.11 c 0,33.961 27.528,61.488 61.489,61.488 v -3.117 c -32.239,0 -58.375,-26.133 -58.375,-58.371 h 6.226 c 0,-28.801 23.348,-52.148 52.149,-52.148 v -3.118 c 30.523,0 55.261,24.743 55.261,55.266 h 3.118 c 0,-32.242 -26.137,-58.379 -58.379,-58.379 -32.239,0 -58.379,26.137 -58.379,58.379 z M 86.43,37.641 c 27.031,0 48.941,21.91 48.941,48.941 h -3.031 c 0,-25.355 -20.555,-45.914 -45.91,-45.914 v 3.117 c 23.636,0 42.797,19.16 42.797,42.797 0,23.602 -19.196,42.805 -42.797,42.805 v -3.125 c -21.914,0 -39.68,-17.766 -39.68,-39.68 h -3.125 c 0,23.641 19.164,42.805 42.805,42.805 v 6.152 c -27.039,0 -48.957,-21.918 -48.957,-48.957 h -3.184 c 0,28.797 23.348,52.141 52.141,52.141 v -3.184 c 27.086,0 48.941,-21.875 48.941,-48.957 h 3.203 c 0,-28.801 -23.344,-52.144 -52.144,-52.144 z m 36.562,48.941 h 3.117 c 0,-21.914 -17.765,-39.68 -39.679,-39.68 v 3.118 c 20.195,0 36.562,16.371 36.562,36.562 z M 86.43,53.078 v 3.156 c 16.761,0 30.347,13.586 30.347,30.348 h 3.157 c 0,-18.504 -15,-33.504 -33.504,-33.504 z M 56.09,86.582 h -3.121 c 0,18.48 14.98,33.461 33.461,33.461 v -3.121 c -16.754,0 -30.34,-13.586 -30.34,-30.34 z m 6.238,0 c 0,13.309 10.793,24.102 24.102,24.102 v 3.004 c 15.031,0 27.144,-12.075 27.144,-27.106 0,-14.992 -12.152,-27.144 -27.144,-27.144 v 3.039 c -13.313,0 -24.106,10.793 -24.106,24.105 z m -46.738,0 c 0,39.125 31.719,70.84 70.84,70.84 39.187,0 70.843,-31.652 70.843,-70.84 0,-39.129 -31.714,-70.848 -70.843,-70.848 v 3.118 c 37.406,0 67.73,30.324 67.73,67.73 h -3.117 c 0,-35.684 -28.926,-64.613 -64.613,-64.613 v 3.117 c 33.965,0 61.496,27.531 61.496,61.496 h 3.117 c 0,35.742 -28.867,64.641 -64.613,64.641 v 3.082 c -37.403,0 -67.723,-30.321 -67.723,-67.723 z m -9.348,0 c 0,44.285 35.903,80.188 80.188,80.188 v -3.118 c -42.567,0 -77.075,-34.504 -77.075,-77.07 z m 157.266,0 C 163.508,44.012 129,9.504 86.43,9.504 v 3.113 c 40.847,0 73.961,33.117 73.961,73.965 z m 9.344,0 c 0,47.73 -38.692,86.422 -86.422,86.422 -47.731,0 -86.422,-38.692 -86.422,-86.422 H 0 C 0,38.848 38.695,0.148 86.43,0.148 c 47.734,0 86.429,38.7 86.429,86.434 h -0.007" /></g></g></svg>